# xmcd CD database file
#
# Track frame offsets:
#	150
#	26477
#	42757
#	60851
#	76591
#	99088
#	116186
#	140037
#	163882
#	168492
#	189516
#	229601
#	249993
#	270549
#	287650
#	308193
#
# Disc length: 4360 seconds
#
# Revision: 2
# Processed by: cddbd v1.5.2PL0 Copyright (c) Steve Scherf et al.
# Submitted via: CDex 1.70beta2
#
DISCID=cb110610
DTITLE=SARAH BRIGHTMAN - HAREM
DYEAR=1900
DGENRE=New Age
TTITLE0=Harem
TTITLE1=What a Wonderful World
TTITLE2=It's a beautiful day
TTITLE3=What you never know
TTITLE4=The journey home
TTITLE5=Free
TTITLE6=Mysterious Days
TTITLE7=This War Is Over
TTITLE8=Miserere
TTITLE9=Beautiful
TTITLE10=Arabian Nights
TTITLE11=Stranger In Paradise
TTITLE12=Untile The End Of Time
TTITLE13=Gueri De Toi
TTITLE14=Winter July
TTITLE15=Scarbrough Fair
EXTD=
EXTT0=
EXTT1=
EXTT2=
EXTT3=
EXTT4=
EXTT5=
EXTT6=
EXTT7=
EXTT8=
EXTT9=
EXTT10=
EXTT11=
EXTT12=
EXTT13=
EXTT14=
EXTT15=
PLAYORDER=
